<svg width="128" height="40" viewBox="0 0 128 40" fill="none" xmlns="http://www.w3.org/2000/svg">
<path d="M32.6046 0.0646223C33.2011 -0.0297422 33.8066 0.0205855 34.4071 0.00485812C44.9249 -0.00248133 55.4417 -0.00038432 65.9596 0.00380966C66.6339 0.023731 67.3142 -0.0412756 67.9835 0.0719618C68.7902 0.215605 69.604 0.687428 69.9346 1.49896C70.3086 2.40172 70.066 3.44077 69.6293 4.27118C63.9185 15.2269 58.2026 26.1805 52.4797 37.1299C52.143 37.7622 51.6659 38.3525 51.0199 38.6534C50.5791 38.8558 50.0646 38.8799 49.6167 38.6869C48.904 38.3934 48.3945 37.7412 48.0396 37.0586C42.3288 26.1354 36.6231 15.2091 30.9254 4.27852C30.4836 3.43763 30.2309 2.38284 30.6302 1.47275C30.975 0.665409 31.7948 0.201975 32.6046 0.0646223Z" fill="#7826E7"/>
<path d="M78.2349 0.119844C78.5817 0.0328186 78.9395 -0.00178172 79.2964 0.00136376C80.7127 0.00450924 82.1301 -0.0070242 83.5464 0.00765472C85.4449 0.0653219 87.1908 1.51958 87.6983 3.41002C87.943 4.18695 87.855 5.01107 87.8732 5.81317C87.8763 15.6669 87.8894 25.5207 87.8661 35.3744C87.8985 37.743 85.9181 39.885 83.6435 39.993C82.1938 40.0046 80.7451 39.992 79.2954 39.9983C77.9266 40.0392 76.577 39.3514 75.7227 38.2515C75.0454 37.3917 74.6754 36.2782 74.7128 35.1679C74.7037 24.9985 74.7007 14.8292 74.7138 4.65982C74.6936 2.54291 76.2474 0.568599 78.2349 0.119844Z" fill="#7826E7"/>
<path d="M96.4015 0.798396C97.1546 0.708225 97.8997 0.983979 98.5366 1.3845C107.167 6.51374 115.791 11.6556 124.412 16.8016C125.003 17.1664 125.614 17.4988 126.192 17.8857C126.915 18.3932 127.542 19.2152 127.495 20.1651C127.448 21.1518 126.725 21.935 125.944 22.4131C116.77 27.8957 107.59 33.3678 98.4062 38.8336C97.5853 39.3201 96.5076 39.5927 95.6372 39.0842C94.7516 38.5568 94.416 37.4244 94.4403 36.421C94.4201 25.5523 94.4261 14.6836 94.4393 3.81596C94.4221 3.06105 94.5616 2.27048 94.9983 1.64977C95.3248 1.179 95.8445 0.862354 96.4015 0.798396Z" fill="#7826E7"/>
<path d="M19.4978 1.16404C20.6129 0.904009 21.5784 1.83507 22.0646 2.78396C27.7461 13.6422 33.4134 24.5098 39.0788 35.3775C39.378 35.9227 39.6489 36.4994 39.7298 37.1284C39.8471 37.8676 39.6439 38.6802 39.106 39.1992C38.5076 39.7895 37.6493 40.0139 36.8405 39.9992C25.4836 39.9982 14.1267 40.0003 2.76982 39.9992C1.95096 39.9835 1.08256 39.714 0.52452 39.0619C-0.251882 38.1623 -0.0719349 36.795 0.453754 35.8105C6.18579 24.8065 11.9289 13.8078 17.6751 2.81227C18.0694 2.07203 18.6719 1.3601 19.4978 1.16404Z" fill="#7826E7"/>
</svg>
